<svg width="32" height="31" viewBox="0 0 32 31" fill="none" xmlns="http://www.w3.org/2000/svg">
<path d="M27.7597 1.93848H4.39161C3.11474 1.93848 1.99911 2.82852 1.99911 4.05096V26.7391C1.99911 27.9682 3.11474 29.0635 4.39161 29.0635H27.7529C29.0366 29.0635 29.9991 27.9609 29.9991 26.7391V4.05096C30.0066 2.82852 29.0366 1.93848 27.7597 1.93848ZM10.6785 24.5485H6.66724V12.4664H10.6785V24.5485ZM8.81161 10.6294H8.78286C7.49911 10.6294 6.66786 9.70361 6.66786 8.54475C6.66786 7.36469 7.52099 6.46072 8.83349 6.46072C10.146 6.46072 10.9491 7.35803 10.9779 8.54475C10.9772 9.70361 10.146 10.6294 8.81161 10.6294ZM25.3385 24.5485H21.3272V17.9422C21.3272 16.3595 20.7435 15.2782 19.2922 15.2782C18.1835 15.2782 17.5272 16.0047 17.2354 16.7125C17.126 16.9668 17.0966 17.3131 17.0966 17.6667V24.5485H13.0854V12.4664H17.0966V14.1478C17.6804 13.3425 18.5922 12.1836 20.7141 12.1836C23.3472 12.1836 25.3391 13.865 25.3391 17.4899L25.3385 24.5485Z" fill="white"/>
</svg>
