<svg width="213" height="33" viewBox="0 0 213 33" fill="none" xmlns="http://www.w3.org/2000/svg">
<path d="M16.5 0L20.2045 11.4012H32.1924L22.494 18.4476L26.1985 29.8488L16.5 22.8024L6.80154 29.8488L10.506 18.4476L0.807568 11.4012H12.7955L16.5 0Z" fill="#FF9314"/>
<path d="M61.5 0L65.2045 11.4012H77.1924L67.494 18.4476L71.1985 29.8488L61.5 22.8024L51.8015 29.8488L55.506 18.4476L45.8076 11.4012H57.7955L61.5 0Z" fill="#FF9314"/>
<path d="M106.5 0L110.204 11.4012H122.192L112.494 18.4476L116.198 29.8488L106.5 22.8024L96.8015 29.8488L100.506 18.4476L90.8076 11.4012H102.796L106.5 0Z" fill="#FF9314"/>
<path d="M151.5 0L155.204 11.4012H167.192L157.494 18.4476L161.198 29.8488L151.5 22.8024L141.802 29.8488L145.506 18.4476L135.808 11.4012H147.796L151.5 0Z" fill="#FF9314"/>
<path d="M196.5 0L200.204 11.4012H212.192L202.494 18.4476L206.198 29.8488L196.5 22.8024L186.802 29.8488L190.506 18.4476L180.808 11.4012H192.796L196.5 0Z" fill="#FF9314"/>
</svg>
