<svg width="31" height="31" viewBox="0 0 31 31" fill="none" xmlns="http://www.w3.org/2000/svg">
<path d="M30.0304 6.62794C28.9403 7.10163 27.7868 7.41371 26.6065 7.55431C27.8469 6.82797 28.7797 5.67406 29.23 4.30899C28.0573 4.99474 26.7764 5.4759 25.4422 5.73185C24.8804 5.14305 24.2047 4.67464 23.4562 4.3551C22.7077 4.03556 21.9021 3.87155 21.0883 3.87306C17.7933 3.87306 15.1268 6.50079 15.1268 9.74005C15.1245 10.1906 15.1761 10.6398 15.2806 11.0781C12.9179 10.9674 10.6043 10.3646 8.48784 9.30851C6.3714 8.25237 4.49871 6.76608 2.98959 4.94474C2.46015 5.83727 2.18015 6.85562 2.17886 7.89337C2.17886 9.92775 3.24025 11.726 4.84293 12.7795C3.89339 12.757 2.9633 12.5057 2.13164 12.0469V12.1195C2.13164 14.9652 4.19023 17.3326 6.91484 17.8715C6.40248 18.0081 5.8745 18.0773 5.34425 18.0774C4.968 18.078 4.59261 18.0415 4.22353 17.9684C4.98097 20.2994 7.18549 21.9947 9.79687 22.0432C7.67493 23.6785 5.06975 24.5624 2.39078 24.5559C1.91525 24.5552 1.44017 24.5269 0.967926 24.4711C3.69325 26.2114 6.86122 27.1319 10.0948 27.1231C21.0755 27.1231 27.0745 18.1803 27.0745 10.4242C27.0745 10.1699 27.0679 9.91564 27.0558 9.66739C28.2201 8.83915 29.2275 7.80988 30.0304 6.62794V6.62794Z" fill="white"/>
</svg>
